<?xml version="1.0" encoding="UTF-8"?>
<svg version="1.1" xmlns="http://www.w3.org/2000/svg" width="48" height="48">
<path d="M0 0 C15.84 0 31.68 0 48 0 C48 15.84 48 31.68 48 48 C32.16 48 16.32 48 0 48 C0 32.16 0 16.32 0 0 Z " fill="#3E629F" transform="translate(0,0)"/>
<path d="M0 0 C9.9 0 19.8 0 30 0 C30.33 2.97 30.66 5.94 31 9 C25.06 9 19.12 9 13 9 C13 10.32 13 11.64 13 13 C18.28 13 23.56 13 29 13 C29 15.97 29 18.94 29 22 C23.72 22 18.44 22 13 22 C13 26.62 13 31.24 13 36 C9.04 36 5.08 36 1 36 C0.67 24.12 0.34 12.24 0 0 Z " fill="#EEF3F8" transform="translate(9,6)"/>
<path d="M0 0 C5.28 0 10.56 0 16 0 C16 15.84 16 31.68 16 48 C12.04 48 8.08 48 4 48 C3.01 47.01 2.02 46.02 1 45 C0.01 45.495 0.01 45.495 -1 46 C-3.15305957 42.14243493 -4.39253254 39.44870215 -4 35 C-3.34 35 -2.68 35 -2 35 C-2 34.34 -2 33.68 -2 33 C-0.515 32.505 -0.515 32.505 1 32 C1 31.34 1 30.68 1 30 C2.98 29.34 4.96 28.68 7 28 C6.67 25.03 6.34 22.06 6 19 C0.72 19 -4.56 19 -10 19 C-10 17.68 -10 16.36 -10 15 C-4.06 15 1.88 15 8 15 C7.67 14.34 7.34 13.68 7 13 C6.86584528 10.3276379 6.95681459 7.67749512 7 5 C4.69 5 2.38 5 0 5 C0.33 4.34 0.66 3.68 1 3 C0.67 2.01 0.34 1.02 0 0 Z " fill="#3E619E" transform="translate(32,0)"/>
<path d="M0 0 C1.99173794 3.98347589 2.46902162 5.6850011 2 10 C-1.63195496 12.42130331 -3.38349348 12.21022785 -7.6875 12.125 C-8.86699219 12.10695313 -10.04648437 12.08890625 -11.26171875 12.0703125 C-12.16535156 12.04710937 -13.06898437 12.02390625 -14 12 C-13.89300781 12.67546875 -13.78601562 13.3509375 -13.67578125 14.046875 C-13.55589844 14.93890625 -13.43601562 15.8309375 -13.3125 16.75 C-13.12107422 18.07257812 -13.12107422 18.07257812 -12.92578125 19.421875 C-13.01737951 22.60370915 -13.7941118 23.75326202 -16 26 C-18.6875 26.75 -18.6875 26.75 -21 27 C-21 26.34 -21 25.68 -21 25 C-23.31 25 -25.62 25 -28 25 C-28 24.67 -28 24.34 -28 24 C-24.04 24 -20.08 24 -16 24 C-16 19.38 -16 14.76 -16 10 C-10.72 10 -5.44 10 0 10 C0 6.7 0 3.4 0 0 Z " fill="#415D90" transform="translate(38,18)"/>
<path d="M0 0 C0.33 0 0.66 0 1 0 C1 2.64 1 5.28 1 8 C-0.65 8.33 -2.3 8.66 -4 9 C-4 9.33 -4 9.66 -4 10 C-8.62 10.33 -13.24 10.66 -18 11 C-18 9.68 -18 8.36 -18 7 C-12.06 7 -6.12 7 0 7 C0 4.69 0 2.38 0 0 Z " fill="#425F90" transform="translate(40,8)"/>
<path d="M0 0 C2.64 0 5.28 0 8 0 C8 2.31 8 4.62 8 7 C5.36 7 2.72 7 0 7 C0 4.69 0 2.38 0 0 Z " fill="#D5E3F2" transform="translate(31,34)"/>
<path d="M0 0 C2.64 0 5.28 0 8 0 C8 0.33 8 0.66 8 1 C5.69 1 3.38 1 1 1 C1 3.64 1 6.28 1 9 C3.31 9 5.62 9 8 9 C8 9.33 8 9.66 8 10 C6.72125 10.061875 5.4425 10.12375 4.125 10.1875 C3.40570313 10.22230469 2.68640625 10.25710937 1.9453125 10.29296875 C1.30335937 10.19628906 0.66140625 10.09960938 0 10 C-2.1519437 6.77208445 -2.20086443 5.71599191 -2 2 C-1.34 2 -0.68 2 0 2 C0 1.34 0 0.68 0 0 Z " fill="#3B5D92" transform="translate(30,33)"/>
<path d="M0 0 C0.33 0.66 0.66 1.32 1 2 C4.04581269 2.46954261 4.04581269 2.46954261 7.5625 2.625 C8.76003906 2.69976562 9.95757812 2.77453125 11.19140625 2.8515625 C12.11824219 2.90054687 13.04507812 2.94953125 14 3 C14 3.33 14 3.66 14 4 C7.73 4 1.46 4 -5 4 C-5 3.01 -5 2.02 -5 1 C-2 0 -2 0 0 0 Z " fill="#415E8F" transform="translate(14,2)"/>
<path d="M0 0 C4.95 0 9.9 0 15 0 C14.67 1.32 14.34 2.64 14 4 C13.67 3.34 13.34 2.68 13 2 C9.95418731 1.53045739 9.95418731 1.53045739 6.4375 1.375 C5.23996094 1.30023437 4.04242188 1.22546875 2.80859375 1.1484375 C1.41833984 1.07496094 1.41833984 1.07496094 0 1 C0 0.67 0 0.34 0 0 Z " fill="#E2F2FE" transform="translate(22,19)"/>
</svg>
